<svg version="1.1" id="Layer_1" xmlns="http://www.w3.org/2000/svg" xmlns:xlink="http://www.w3.org/1999/xlink" x="0px" y="0px"
	 width="100%" viewBox="0 0 368 109" enable-background="new 0 0 368 109" xml:space="preserve">
<path fill="#FEFEFE" opacity="1.000000" stroke="none" 
	d="
M342.000000,110.000000 
	C228.000015,110.000000 114.500031,110.000000 1.000031,110.000000 
	C1.000020,73.666687 1.000020,37.333370 1.000010,1.000040 
	C123.666634,1.000027 246.333267,1.000027 368.999939,1.000013 
	C368.999939,37.333298 368.999939,73.666595 368.999969,109.999947 
	C360.166656,110.000000 351.333344,110.000000 342.000000,110.000000 
M205.955826,78.303658 
	C210.653412,79.098457 215.350998,79.893257 220.048584,80.688057 
	C220.100967,80.219223 220.153366,79.750389 220.205750,79.281563 
	C213.322739,74.131424 218.360535,66.967857 216.576080,61.067371 
	C218.439407,60.335964 219.765060,59.815613 222.070892,58.910511 
	C220.360794,58.211666 219.807297,57.930534 219.221603,57.759941 
	C218.477676,57.543251 217.707626,57.416210 216.439896,57.139381 
	C216.819794,54.274483 217.170654,51.628502 217.524933,48.956745 
	C219.238983,51.355286 220.225281,53.079048 221.622833,54.350845 
	C221.854172,54.561382 223.883530,52.796112 225.081985,51.943932 
	C223.655823,50.215805 222.557419,47.584213 220.743118,46.926006 
	C214.892792,44.803581 210.830963,47.673481 209.562378,53.837666 
	C209.182999,55.681229 208.116180,57.383324 207.213272,59.505211 
	C207.610184,60.000912 209.107819,61.008469 209.161896,62.088310 
	C209.394318,66.730240 209.381897,71.408401 208.994858,76.034561 
	C208.927734,76.836937 206.622925,77.452118 205.888016,77.506912 
	C204.965073,76.079819 203.457413,74.735222 203.241959,73.208298 
	C202.805222,70.112892 203.109772,66.917747 203.032455,63.765591 
	C202.927200,59.475758 200.198700,57.486279 196.386917,57.099537 
	C191.944946,56.648857 187.141968,56.141247 184.627991,61.102734 
	C184.053314,62.236912 184.466568,64.496170 185.304031,65.515495 
	C185.927017,66.273735 188.449844,66.464714 189.252472,65.820091 
	C190.172897,65.080849 190.215256,63.154568 190.456955,61.713425 
	C190.544724,61.190056 190.107513,60.578632 189.904724,59.992577 
	C195.407822,58.412399 196.200409,59.250633 195.726318,65.845810 
	C192.880630,67.036453 189.940872,68.124413 187.130020,69.479736 
	C183.874771,71.049347 182.360092,73.761024 183.651749,77.257103 
	C185.056107,81.058319 188.281540,81.045647 191.550934,80.141220 
	C193.091187,79.715134 194.540344,78.959808 195.988037,78.371056 
	C198.986481,81.566307 201.988632,81.282867 205.955826,78.303658 
M79.914688,70.699242 
	C81.306618,73.922768 82.698540,77.146286 84.090462,80.369812 
	C84.564156,80.318489 85.037842,80.267166 85.511528,80.215843 
	C87.303696,76.031319 89.109123,71.852409 90.884300,67.660698 
	C92.680069,63.420338 94.445900,59.167297 96.224846,54.919815 
	C97.193169,60.293575 97.054436,65.292252 97.238312,70.279030 
	C97.378334,74.076538 97.607376,77.718590 93.207726,79.501190 
	C98.552086,79.501190 103.896439,79.501190 110.081276,79.501190 
	C103.274406,75.459167 103.256371,52.026234 110.348557,46.983532 
	C107.054611,46.983532 104.804230,47.286533 102.668091,46.921329 
	C98.023422,46.127251 95.866386,48.146469 94.418861,52.424305 
	C92.608704,57.773796 90.061462,62.873875 87.485405,68.892334 
	C84.538162,62.004292 82.059479,56.040558 79.407547,50.154881 
	C78.864998,48.950745 77.752518,47.234390 76.765877,47.136723 
	C73.115608,46.775375 69.408035,46.992939 66.966927,46.992939 
	C68.040596,50.365063 69.389267,53.148510 69.736168,56.051659 
	C70.187492,59.828808 69.910126,63.702530 69.823853,67.531929 
	C69.723450,71.989021 71.482651,77.121521 64.791046,79.472336 
	C69.472908,79.472336 73.225090,79.472336 76.817268,79.472336 
	C75.194725,77.668976 72.697235,76.185997 72.569359,74.521011 
	C72.087212,68.243233 72.375778,61.906250 72.375778,55.591438 
	C72.676636,55.558331 72.977486,55.525223 73.278343,55.492115 
	C75.391266,60.326435 77.504196,65.160759 79.914688,70.699242 
M158.939865,70.238243 
	C158.977768,65.475357 158.671310,60.676010 159.170334,55.961941 
	C159.524155,52.619633 161.201355,48.853130 165.129211,49.119217 
	C168.240753,49.329998 171.451874,51.180950 174.168472,52.982601 
	C175.887512,54.122654 176.779617,56.509541 178.855499,59.513523 
	C178.855499,54.242542 178.855499,50.471218 178.855499,47.598789 
	C176.162262,47.478893 173.852768,47.766724 171.761749,47.219555 
	C158.249023,43.683601 147.287277,53.005692 149.112122,66.625824 
	C150.138916,74.289513 155.646362,79.677780 163.629715,80.829269 
	C170.468857,81.815720 177.067764,78.622849 179.395325,72.636841 
	C177.756485,73.219551 176.313492,74.115784 174.952118,75.122406 
	C168.194305,80.119255 162.455261,78.655174 158.939865,70.238243 
M50.094654,53.912781 
	C50.876785,53.650215 51.703888,53.477150 52.433720,53.110477 
	C57.005661,50.813515 60.300991,45.689781 58.471737,42.421574 
	C57.353176,40.423122 54.365532,38.469772 52.102058,38.327301 
	C47.757084,38.053810 43.472740,42.933842 43.018112,47.396538 
	C43.001289,47.561676 43.053379,47.750370 42.991077,47.891850 
	C42.120331,49.869053 41.680660,52.265064 40.275265,53.737568 
	C34.674206,59.606075 28.771259,65.186455 22.768879,71.080894 
	C24.059383,72.270798 24.846600,72.996643 26.581516,74.596313 
	C31.354553,69.334366 36.011143,64.200798 41.204960,58.474964 
	C45.714912,63.203957 49.890816,67.466637 53.924271,71.860077 
	C55.999275,74.120285 57.347843,73.771904 58.979424,70.075706 
	C54.082092,65.660606 48.930862,61.016602 43.779633,56.372601 
	C43.889591,55.869633 43.999550,55.366669 44.109509,54.863701 
	C45.837456,54.567379 47.565403,54.271053 50.094654,53.912781 
M117.520256,57.576401 
	C112.014595,61.084297 109.884453,66.661873 111.489441,72.963074 
	C112.731667,77.840057 116.135040,80.096260 120.781555,80.649101 
	C125.062309,81.158432 128.480698,78.638641 130.325394,74.049904 
	C120.507423,77.063751 118.962814,76.286751 119.256088,68.154610 
	C121.053268,68.154610 122.869583,68.154610 124.685905,68.154610 
	C126.610008,68.154610 128.534103,68.154610 130.516800,68.154610 
	C129.574417,58.821114 126.553612,56.290428 117.520256,57.576401 
M240.877029,68.151047 
	C241.405594,67.865486 242.344437,67.644196 242.400757,67.284660 
	C243.169037,62.379993 239.371796,57.440571 234.556427,56.937756 
	C227.088760,56.157990 221.925049,62.681202 223.149353,71.348129 
	C223.892944,76.612000 227.006348,79.908066 232.135880,80.502846 
	C237.162231,81.085670 240.542297,78.735374 242.786392,74.054367 
	C232.039902,76.520981 231.208405,76.111633 231.116333,68.160370 
	C234.082275,68.160370 237.048096,68.160370 240.877029,68.151047 
M134.456970,70.314117 
	C134.464432,71.807823 134.476303,73.301521 134.478516,74.795235 
	C134.484314,78.707161 136.631836,80.753174 140.347794,80.552010 
	C144.000565,80.354263 146.571625,78.482613 147.137390,74.017372 
	C145.233948,74.986465 143.921890,75.654465 142.034943,76.615150 
	C142.034943,70.724548 142.034943,65.647408 142.034943,60.362427 
	C143.381699,60.120590 144.738297,59.876984 146.094910,59.633377 
	C146.200470,59.265991 146.306015,58.898605 146.411560,58.531219 
	C144.914642,57.840828 143.417709,57.150433 141.868729,56.436039 
	C141.750488,54.108265 141.629181,51.720005 141.435974,47.916111 
	C137.597488,52.225872 134.711456,55.466240 131.668152,58.883198 
	C136.356400,61.567959 133.837860,65.837654 134.456970,70.314117 
M33.086842,45.493450 
	C30.896822,42.813251 28.706800,40.133057 26.327204,37.220848 
	C21.055346,45.030193 22.148300,48.264721 31.754314,56.802513 
	C33.810978,54.763271 35.879959,52.711823 38.620808,49.994198 
	C36.737709,48.490238 35.178848,47.245239 33.086842,45.493450 
M234.979477,47.389915 
	C233.112259,49.604553 231.245041,51.819195 229.377823,54.033833 
	C229.685028,54.474007 229.992218,54.914181 230.299423,55.354355 
	C233.053513,53.877197 236.014725,52.672897 238.473434,50.806580 
	C239.683670,49.887917 239.964127,47.744335 240.665329,46.155056 
	C238.939499,46.395557 237.213684,46.636059 234.979477,47.389915 
z"/>
<path fill="#090909" opacity="1.000000" stroke="none" 
	d="
M79.765900,70.347160 
	C77.504196,65.160759 75.391266,60.326435 73.278343,55.492115 
	C72.977486,55.525223 72.676636,55.558331 72.375778,55.591438 
	C72.375778,61.906250 72.087212,68.243233 72.569359,74.521011 
	C72.697235,76.185997 75.194725,77.668976 76.817268,79.472336 
	C73.225090,79.472336 69.472908,79.472336 64.791046,79.472336 
	C71.482651,77.121521 69.723450,71.989021 69.823853,67.531929 
	C69.910126,63.702530 70.187492,59.828808 69.736168,56.051659 
	C69.389267,53.148510 68.040596,50.365063 66.966927,46.992939 
	C69.408035,46.992939 73.115608,46.775375 76.765877,47.136723 
	C77.752518,47.234390 78.864998,48.950745 79.407547,50.154881 
	C82.059479,56.040558 84.538162,62.004292 87.485405,68.892334 
	C90.061462,62.873875 92.608704,57.773796 94.418861,52.424305 
	C95.866386,48.146469 98.023422,46.127251 102.668091,46.921329 
	C104.804230,47.286533 107.054611,46.983532 110.348557,46.983532 
	C103.256371,52.026234 103.274406,75.459167 110.081276,79.501190 
	C103.896439,79.501190 98.552086,79.501190 93.207726,79.501190 
	C97.607376,77.718590 97.378334,74.076538 97.238312,70.279030 
	C97.054436,65.292252 97.193169,60.293575 96.224846,54.919815 
	C94.445900,59.167297 92.680069,63.420338 90.884300,67.660698 
	C89.109123,71.852409 87.303696,76.031319 85.511528,80.215843 
	C85.037842,80.267166 84.564156,80.318489 84.090462,80.369812 
	C82.698540,77.146286 81.306618,73.922768 79.765900,70.347160 
z"/>
<path fill="#0C0C0C" opacity="1.000000" stroke="none" 
	d="
M159.000381,70.638351 
	C162.455261,78.655174 168.194305,80.119255 174.952118,75.122406 
	C176.313492,74.115784 177.756485,73.219551 179.395325,72.636841 
	C177.067764,78.622849 170.468857,81.815720 163.629715,80.829269 
	C155.646362,79.677780 150.138916,74.289513 149.112122,66.625824 
	C147.287277,53.005692 158.249023,43.683601 171.761749,47.219555 
	C173.852768,47.766724 176.162262,47.478893 178.855499,47.598789 
	C178.855499,50.471218 178.855499,54.242542 178.855499,59.513523 
	C176.779617,56.509541 175.887512,54.122654 174.168472,52.982601 
	C171.451874,51.180950 168.240753,49.329998 165.129211,49.119217 
	C161.201355,48.853130 159.524155,52.619633 159.170334,55.961941 
	C158.671310,60.676010 158.977768,65.475357 159.000381,70.638351 
z"/>
<path fill="#080808" opacity="1.000000" stroke="none" 
	d="
M49.694000,53.943756 
	C47.565403,54.271053 45.837456,54.567379 44.109509,54.863701 
	C43.999550,55.366669 43.889591,55.869633 43.779633,56.372601 
	C48.930862,61.016602 54.082092,65.660606 58.979424,70.075706 
	C57.347843,73.771904 55.999275,74.120285 53.924271,71.860077 
	C49.890816,67.466637 45.714912,63.203957 41.204960,58.474964 
	C36.011143,64.200798 31.354553,69.334366 26.581516,74.596313 
	C24.846600,72.996643 24.059383,72.270798 22.768879,71.080894 
	C28.771259,65.186455 34.674206,59.606075 40.275265,53.737568 
	C41.680660,52.265064 42.120331,49.869053 42.991077,47.891850 
	C43.053379,47.750370 43.001289,47.561676 43.018112,47.396538 
	C43.472740,42.933842 47.757084,38.053810 52.102058,38.327301 
	C54.365532,38.469772 57.353176,40.423122 58.471737,42.421574 
	C60.300991,45.689781 57.005661,50.813515 52.433720,53.110477 
	C51.703888,53.477150 50.876785,53.650215 49.694000,53.943756 
z"/>
<path fill="#0A0A0A" opacity="1.000000" stroke="none" 
	d="
M205.034393,78.552864 
	C201.988632,81.282867 198.986481,81.566307 195.988037,78.371056 
	C194.540344,78.959808 193.091187,79.715134 191.550934,80.141220 
	C188.281540,81.045647 185.056107,81.058319 183.651749,77.257103 
	C182.360092,73.761024 183.874771,71.049347 187.130020,69.479736 
	C189.940872,68.124413 192.880630,67.036453 195.726318,65.845810 
	C196.200409,59.250633 195.407822,58.412399 189.904724,59.992577 
	C190.107513,60.578632 190.544724,61.190056 190.456955,61.713425 
	C190.215256,63.154568 190.172897,65.080849 189.252472,65.820091 
	C188.449844,66.464714 185.927017,66.273735 185.304031,65.515495 
	C184.466568,64.496170 184.053314,62.236912 184.627991,61.102734 
	C187.141968,56.141247 191.944946,56.648857 196.386917,57.099537 
	C200.198700,57.486279 202.927200,59.475758 203.032455,63.765591 
	C203.109772,66.917747 202.805222,70.112892 203.241959,73.208298 
	C203.457413,74.735222 204.965073,76.079819 205.530670,77.860733 
	C205.173309,78.214554 205.034393,78.552864 205.034393,78.552864 
M196.008209,72.456024 
	C195.949936,71.330475 195.891663,70.204926 195.833405,69.079376 
	C195.431992,68.842323 195.030594,68.605278 194.629196,68.368225 
	C193.409393,70.190712 192.028564,71.936203 191.092194,73.894226 
	C190.879684,74.338585 192.208542,75.520050 192.827927,76.362236 
	C193.886948,75.346901 194.945969,74.331566 196.008209,72.456024 
z"/>
<path fill="#141414" opacity="1.000000" stroke="none" 
	d="
M205.495117,78.428261 
	C205.034393,78.552864 205.173309,78.214554 205.262497,78.184158 
	C206.622925,77.452118 208.927734,76.836937 208.994858,76.034561 
	C209.381897,71.408401 209.394318,66.730240 209.161896,62.088310 
	C209.107819,61.008469 207.610184,60.000912 207.213272,59.505211 
	C208.116180,57.383324 209.182999,55.681229 209.562378,53.837666 
	C210.830963,47.673481 214.892792,44.803581 220.743118,46.926006 
	C222.557419,47.584213 223.655823,50.215805 225.081970,51.943924 
	C223.883530,52.796112 221.854172,54.561382 221.622833,54.350845 
	C220.225281,53.079048 219.238983,51.355286 217.524933,48.956745 
	C217.170654,51.628502 216.819794,54.274483 216.439896,57.139381 
	C217.707626,57.416210 218.477676,57.543251 219.221603,57.759941 
	C219.807297,57.930534 220.360794,58.211666 222.070892,58.910511 
	C219.765060,59.815613 218.439407,60.335964 216.576080,61.067371 
	C218.360535,66.967857 213.322739,74.131424 220.205750,79.281563 
	C220.153366,79.750389 220.100967,80.219223 220.048584,80.688057 
	C215.350998,79.893257 210.653412,79.098457 205.495117,78.428261 
z"/>
<path fill="#0B0B0B" opacity="1.000000" stroke="none" 
	d="
M117.895554,57.429848 
	C126.553612,56.290428 129.574417,58.821114 130.516800,68.154610 
	C128.534103,68.154610 126.610008,68.154610 124.685905,68.154610 
	C122.869583,68.154610 121.053268,68.154610 119.256088,68.154610 
	C118.962814,76.286751 120.507423,77.063751 130.325394,74.049904 
	C128.480698,78.638641 125.062309,81.158432 120.781555,80.649101 
	C116.135040,80.096260 112.731667,77.840057 111.489441,72.963074 
	C109.884453,66.661873 112.014595,61.084297 117.895554,57.429848 
M122.498688,65.974281 
	C122.747169,64.045715 123.132584,62.116566 123.124359,60.189095 
	C123.122780,59.819832 120.878395,59.072941 120.837051,59.147552 
	C119.743301,61.121765 118.803192,63.181099 117.479187,65.982796 
	C119.718567,65.982796 120.689804,65.982796 122.498688,65.974281 
z"/>
<path fill="#0B0B0B" opacity="1.000000" stroke="none" 
	d="
M240.445465,68.155708 
	C237.048096,68.160370 234.082275,68.160370 231.116333,68.160370 
	C231.208405,76.111633 232.039902,76.520981 242.786392,74.054367 
	C240.542297,78.735374 237.162231,81.085670 232.135880,80.502846 
	C227.006348,79.908066 223.892944,76.612000 223.149353,71.348129 
	C221.925049,62.681202 227.088760,56.157990 234.556427,56.937756 
	C239.371796,57.440571 243.169037,62.379993 242.400757,67.284660 
	C242.344437,67.644196 241.405594,67.865486 240.445465,68.155708 
M235.966553,65.350014 
	C235.154434,63.235035 234.342316,61.120052 233.530197,59.005070 
	C232.197021,60.954842 230.863861,62.904617 228.800919,65.921677 
	C232.087830,65.921677 233.714218,65.921677 235.966553,65.350014 
z"/>
<path fill="#121212" opacity="1.000000" stroke="none" 
	d="
M134.455170,69.847107 
	C133.837860,65.837654 136.356400,61.567959 131.668152,58.883198 
	C134.711456,55.466240 137.597488,52.225872 141.435974,47.916111 
	C141.629181,51.720005 141.750488,54.108265 141.868729,56.436039 
	C143.417709,57.150433 144.914642,57.840828 146.411560,58.531219 
	C146.306015,58.898605 146.200470,59.265991 146.094910,59.633377 
	C144.738297,59.876984 143.381699,60.120590 142.034943,60.362427 
	C142.034943,65.647408 142.034943,70.724548 142.034943,76.615150 
	C143.921890,75.654465 145.233948,74.986465 147.137390,74.017372 
	C146.571625,78.482613 144.000565,80.354263 140.347794,80.552010 
	C136.631836,80.753174 134.484314,78.707161 134.478516,74.795235 
	C134.476303,73.301521 134.464432,71.807823 134.455170,69.847107 
z"/>
<path fill="#0B0B0B" opacity="1.000000" stroke="none" 
	d="
M33.353416,45.746841 
	C35.178848,47.245239 36.737709,48.490238 38.620808,49.994198 
	C35.879959,52.711823 33.810978,54.763271 31.754314,56.802513 
	C22.148300,48.264721 21.055346,45.030193 26.327204,37.220848 
	C28.706800,40.133057 30.896822,42.813251 33.353416,45.746841 
z"/>
<path fill="#161616" opacity="1.000000" stroke="none" 
	d="
M235.233673,47.133240 
	C237.213684,46.636059 238.939499,46.395557 240.665344,46.155060 
	C239.964127,47.744335 239.683670,49.887917 238.473434,50.806580 
	C236.014725,52.672897 233.053513,53.877197 230.299423,55.354355 
	C229.992218,54.914181 229.685028,54.474007 229.377823,54.033833 
	C231.245041,51.819195 233.112259,49.604553 235.233673,47.133240 
z"/>
<path fill="#F1F1F1" opacity="1.000000" stroke="none" 
	d="
M196.006592,72.886124 
	C194.945969,74.331566 193.886948,75.346901 192.827927,76.362228 
	C192.208542,75.520050 190.879684,74.338585 191.092194,73.894226 
	C192.028564,71.936203 193.409393,70.190712 194.629196,68.368225 
	C195.030594,68.605278 195.431992,68.842323 195.833405,69.079376 
	C195.891663,70.204926 195.949936,71.330475 196.006592,72.886124 
z"/>
<path fill="#E6E6E6" opacity="1.000000" stroke="none" 
	d="
M122.079865,65.978539 
	C120.689804,65.982796 119.718567,65.982796 117.479187,65.982796 
	C118.803192,63.181099 119.743301,61.121765 120.837051,59.147552 
	C120.878395,59.072941 123.122780,59.819832 123.124359,60.189095 
	C123.132584,62.116566 122.747169,64.045715 122.079865,65.978539 
z"/>
<path fill="#E7E7E7" opacity="1.000000" stroke="none" 
	d="
M235.653564,65.635849 
	C233.714218,65.921677 232.087830,65.921677 228.800919,65.921677 
	C230.863861,62.904617 232.197021,60.954842 233.530197,59.005074 
	C234.342316,61.120052 235.154434,63.235035 235.653564,65.635849 
z"/>
</svg>